<svg id="Layer_1" data-name="Layer 1" xmlns="http://www.w3.org/2000/svg" viewBox="0 0 729.89 220.82"><path d="M46.1,217.52,0,54.38H39.19L67.87,169.09h1.49L98.67,54.38h38.77l29.31,114.07h1.6L196.6,54.38h39.3L189.7,217.52h-40L119.06,107.27h-2.23L86.24,217.52Z"/><path d="M262.92,217.53l-.06-163.14,38.45,0,.06,163.15Z"/><path d="M387.78,220.82a67.09,67.09,0,0,1-27.88-5.58,44.8,44.8,0,0,1-19.54-16.52q-7.17-10.93-7.17-27,0-13.81,5.1-22.84a39.4,39.4,0,0,1,13.91-14.44,71.07,71.07,0,0,1,19.91-8.24,166,166,0,0,1,23-4.09q14.34-1.48,23.26-2.7t13-3.83q4.1-2.6,4.09-8.12v-.64q0-12-7.12-18.59t-20.49-6.58q-14.13,0-22.36,6.16t-11.1,14.55l-35.9-5.1a57.72,57.72,0,0,1,14-24.91,61.85,61.85,0,0,1,23.9-15.08,92.31,92.31,0,0,1,31.22-5A101.84,101.84,0,0,1,431.12,55a66.77,66.77,0,0,1,21.34,9.08A46.68,46.68,0,0,1,468,81.25q5.89,10.85,5.9,27.09V217.52H437V195.11h-1.28a46.48,46.48,0,0,1-9.82,12.7A47.24,47.24,0,0,1,410,217.26,63.41,63.41,0,0,1,387.78,220.82Zm10-28.26q11.57,0,20.07-4.62A33.87,33.87,0,0,0,431,175.68,31.67,31.67,0,0,0,435.58,159V139.78a18.15,18.15,0,0,1-6.11,2.76,91,91,0,0,1-9.61,2.23q-5.31,1-10.52,1.7l-9,1.27a67.24,67.24,0,0,0-15.4,3.83A25.74,25.74,0,0,0,374.19,159q-3.93,4.73-3.93,12.16,0,10.62,7.75,16T397.77,192.56Z"/><polygon points="615.08 217.52 661.07 217.52 594.1 124.8 657.35 54.38 612.42 54.38 553.79 119.91 551.13 119.91 551.13 0 512.69 0 512.69 217.52 551.13 217.52 551.13 162.69 565.12 147.69 615.08 217.52"/><path d="M706.52,219.86a22.79,22.79,0,0,1-16.57-6.8,22,22,0,0,1-6.8-16.57,21.77,21.77,0,0,1,6.8-16.35,23.26,23.26,0,0,1,32.87,0,22.4,22.4,0,0,1,7.07,16.35,22.93,22.93,0,0,1-3.35,11.79,24.55,24.55,0,0,1-8.5,8.45A22.14,22.14,0,0,1,706.52,219.86Z"/></svg>