<svg id="Layer_1" data-name="Layer 1" xmlns="http://www.w3.org/2000/svg" viewBox="0 0 250 250"><defs><style>.cls-1{fill:#040404;}</style></defs><path class="cls-1" d="M17.44,130.61l29.94,29.93a16.18,16.18,0,0,1,1.83,2,5,5,0,0,1-.56,6.68,5.07,5.07,0,0,1-6.5.5,12.69,12.69,0,0,1-1.65-1.45Q21,148.85,1.61,129.45c-2.5-2.49-2.52-5.47,0-8q19.61-19.58,39.24-39.13c2.26-2.24,4.4-2.75,6.6-1.58A5,5,0,0,1,50.22,86c-.16,1.67-1.26,2.77-2.37,3.88q-14,13.95-27.92,27.9a27.71,27.71,0,0,1-2.2,1.79c1.26,1.06,2.35.68,3.33.68q110.48,0,220.93,0a23,23,0,0,1,3.43.16,5.06,5.06,0,0,1,.17,10,20.53,20.53,0,0,1-3.42.18H17.44Z"/></svg>