<svg id="Layer_1" data-name="Layer 1" xmlns="http://www.w3.org/2000/svg" viewBox="0 0 180 180"><path d="M91.91,0A29.56,29.56,0,0,1,96.5,2.73c2.18,1.87,2.67,4.53,2.67,7.33q0,34.13,0,68.25v2.51h2.35c22.4,0,44.8.09,67.2,0,5.58,0,9.51,1.8,11.29,7.31v3.51a29,29,0,0,1-2.6,4.47c-1.91,2.25-4.6,2.79-7.46,2.79q-34.14,0-68.27,0H99.16v2.35q0,34.22,0,68.43c0,5.29-2.59,8.8-7.19,9.84a8.93,8.93,0,0,1-10.6-7.06,20.43,20.43,0,0,1-.22-3.32q0-33.87,0-67.72V98.84H10.36c-5.28,0-8.82-2.6-9.85-7.18A8.93,8.93,0,0,1,7.57,81.05a20.31,20.31,0,0,1,3.31-.22q33.87,0,67.74,0h2.53V78.49c0-22.4.08-44.8-.06-67.2C81.05,5.7,82.9,1.78,88.4,0Z"/></svg>