<svg id="Layer_1" data-name="Layer 1" xmlns="http://www.w3.org/2000/svg" viewBox="0 0 250 250"><defs><style>.cls-1{fill:#040404;}</style></defs><path class="cls-1" d="M232,120.2,202.06,90.27a17.94,17.94,0,0,1-1.83-2,5,5,0,0,1,.56-6.68,5.09,5.09,0,0,1,6.51-.5A11.9,11.9,0,0,1,209,82.57l38.89,38.78c2.5,2.5,2.52,5.48,0,8q-19.61,19.58-39.24,39.13c-2.25,2.24-4.4,2.75-6.6,1.58a5,5,0,0,1-2.8-5.25c.16-1.67,1.26-2.78,2.37-3.88q14-14,27.93-27.91a28.14,28.14,0,0,1,2.2-1.78c-1.26-1.06-2.36-.68-3.34-.68q-110.46,0-220.93,0A22.92,22.92,0,0,1,4,130.35a5.05,5.05,0,0,1-.17-10,19.35,19.35,0,0,1,3.41-.18q110.6,0,221.18,0Z"/></svg>